<svg width="13" height="13" viewBox="0 0 13 13" fill="none" xmlns="http://www.w3.org/2000/svg">
<path d="M9.53248 8.3838H8.9301L8.7166 8.17804C9.19313 7.62476 9.5414 6.97305 9.73649 6.26954C9.93159 5.56603 9.96868 4.82813 9.84511 4.10862C9.48673 1.99008 7.71771 0.298302 5.58268 0.0392003C4.83207 -0.0557027 4.06969 0.0222609 3.35388 0.267125C2.63806 0.511989 1.98778 0.917264 1.45279 1.45194C0.917803 1.98661 0.51229 2.63651 0.267282 3.35191C0.0222739 4.06731 -0.0557354 4.82924 0.0392233 5.5794C0.298477 7.71318 1.99125 9.48117 4.11103 9.83934C4.83096 9.96283 5.5693 9.92576 6.27322 9.73079C6.97714 9.53581 7.62923 9.18774 8.18284 8.71149L8.38872 8.92486V9.52689L11.6294 12.7657C11.942 13.0781 12.4529 13.0781 12.7655 12.7657C13.0782 12.4532 13.0782 11.9426 12.7655 11.6302L9.53248 8.3838ZM4.95742 8.3838C3.05877 8.3838 1.52612 6.85205 1.52612 4.95451C1.52612 3.05697 3.05877 1.52522 4.95742 1.52522C6.85607 1.52522 8.38872 3.05697 8.38872 4.95451C8.38872 6.85205 6.85607 8.3838 4.95742 8.3838Z" fill="white"/>
</svg>
